STARTFONT 2.1
COMMENT Created by fdbbdf
FONT SymbolA16
SIZE 16 78 78
FONTBOUNDINGBOX 20 26 -1 -7
STARTPROPERTIES 4
Ownership "  Copyright (c) 1984 Adobe Systems, Inc.  /adobe/fonts/Times/Greek/fontvec.ps TG18.bits  TOTAL BITMAP BYTES 3659  GUIDELINES 0 0 0 0 13 -4 9 DONE  "
FONT_ASCENT 19
FONT_DESCENT 7
DEFAULT_CHAR 33
ENDPROPERTIES
CHARS 94
STARTCHAR bracerightbt
ENCODING -1 126
SWIDTH 0 0
DWIDTH 9 0
BBX 5 22 1 -5
BITMAP
1800
1800
1800
1800
1800
1800
1800
1800
1800
1800
1800
1800
1800
1800
1800
1800
1800
1800
1800
1800
3000
e000
ENDCHAR
STARTCHAR bracerightmid
ENCODING -1 125
SWIDTH 0 0
DWIDTH 9 0
BBX 5 22 4 -5
BITMAP
c000
c000
c000
c000
c000
c000
c000
4000
6000
3000
1800
3000
6000
4000
c000
c000
c000
c000
c000
c000
c000
c000
ENDCHAR
STARTCHAR bracerighttp
ENCODING -1 124
SWIDTH 0 0
DWIDTH 9 0
BBX 5 22 1 -5
BITMAP
e000
3000
1800
1800
1800
1800
1800
1800
1800
1800
1800
1800
1800
1800
1800
1800
1800
1800
1800
1800
1800
1800
ENDCHAR
STARTCHAR bracketrightbt
ENCODING -1 123
SWIDTH 0 0
DWIDTH 7 0
BBX 5 22 1 -5
BITMAP
1800
1800
1800
1800
1800
1800
1800
1800
1800
1800
1800
1800
1800
1800
1800
1800
1800
1800
1800
1800
1800
f800
ENDCHAR
STARTCHAR bracketrightex
ENCODING -1 122
SWIDTH 0 0
DWIDTH 7 0
BBX 2 22 4 -5
BITMAP
c000
c000
c000
c000
c000
c000
c000
c000
c000
c000
c000
c000
c000
c000
c000
c000
c000
c000
c000
c000
c000
c000
ENDCHAR
STARTCHAR bracketrighttp
ENCODING -1 121
SWIDTH 0 0
DWIDTH 7 0
BBX 5 22 1 -5
BITMAP
f800
1800
1800
1800
1800
1800
1800
1800
1800
1800
1800
1800
1800
1800
1800
1800
1800
1800
1800
1800
1800
1800
ENDCHAR
STARTCHAR parenrightbt
ENCODING -1 120
SWIDTH 0 0
DWIDTH 7 0
BBX 6 25 0 -8
BITMAP
0c00
0c00
0c00
0c00
0c00
0c00
0c00
0c00
0c00
0c00
0c00
0c00
0c00
0c00
0c00
1800
1800
1800
1800
3000
3000
6000
6000
c000
8000
ENDCHAR
STARTCHAR parenrightex
ENCODING -1 119
SWIDTH 0 0
DWIDTH 7 0
BBX 2 25 4 -8
BITMAP
c000
c000
c000
c000
c000
c000
c000
c000
c000
c000
c000
c000
c000
c000
c000
c000
c000
c000
c000
c000
c000
c000
c000
c000
c000
ENDCHAR
STARTCHAR parenrighttp
ENCODING -1 118
SWIDTH 0 0
DWIDTH 7 0
BBX 6 25 0 -8
BITMAP
8000
c000
6000
6000
3000
3000
1800
1800
1800
1800
0c00
0c00
0c00
0c00
0c00
0c00
0c00
0c00
0c00
0c00
0c00
0c00
0c00
0c00
0c00
ENDCHAR
STARTCHAR integralbt
ENCODING -1 117
SWIDTH 0 0
DWIDTH 13 0
BBX 7 22 0 -5
BITMAP
0600
0600
0600
0600
0600
0600
0600
0600
0600
0600
0600
0600
0600
0600
0600
0600
0600
0600
0600
cc00
fc00
7000
ENDCHAR
STARTCHAR integralex
ENCODING -1 116
SWIDTH 0 0
DWIDTH 13 0
BBX 2 22 5 -5
BITMAP
c000
c000
c000
c000
c000
c000
c000
c000
c000
c000
c000
c000
c000
c000
c000
c000
c000
c000
c000
c000
c000
c000
ENDCHAR
STARTCHAR integraltp
ENCODING -1 115
SWIDTH 0 0
DWIDTH 13 0
BBX 7 22 5 -5
BITMAP
1c00
7e00
6600
c000
c000
c000
c000
c000
c000
c000
c000
c000
c000
c000
c000
c000
c000
c000
c000
c000
c000
c000
ENDCHAR
STARTCHAR integral
ENCODING -1 114
SWIDTH 0 0
DWIDTH 6 0
BBX 6 22 0 -5
BITMAP
1c00
1c00
3000
3000
3000
3000
3000
3000
3000
3000
3000
3000
3000
3000
3000
3000
3000
3000
3000
3000
e000
e000
ENDCHAR
STARTCHAR angleright
ENCODING -1 113
SWIDTH 0 0
DWIDTH 6 0
BBX 5 17 0 -4
BITMAP
c000
c000
6000
6000
3000
3000
1800
1800
0800
1800
1800
3000
3000
6000
6000
c000
c000
ENDCHAR
STARTCHAR apple
ENCODING -1 112
SWIDTH 0 0
DWIDTH 14 0
BBX 12 15 1 -1
BITMAP
0180
0380
0300
3ae0
7ff0
7fe0
ffc0
ffc0
ffc0
ffe0
fff0
7ff0
7ff0
3fe0
1dc0
ENDCHAR
STARTCHAR braceex
ENCODING -1 111
SWIDTH 0 0
DWIDTH 9 0
BBX 2 22 4 -5
BITMAP
c000
c000
c000
c000
c000
c000
c000
c000
c000
c000
c000
c000
c000
c000
c000
c000
c000
c000
c000
c000
c000
c000
ENDCHAR
STARTCHAR braceleftbt
ENCODING -1 110
SWIDTH 0 0
DWIDTH 9 0
BBX 5 22 4 -5
BITMAP
c000
c000
c000
c000
c000
c000
c000
c000
c000
c000
c000
c000
c000
c000
c000
c000
c000
c000
c000
c000
6000
3800
ENDCHAR
STARTCHAR braceleftmid
ENCODING -1 109
SWIDTH 0 0
DWIDTH 9 0
BBX 5 22 1 -5
BITMAP
1800
1800
1800
1800
1800
1800
1800
1000
3000
6000
c000
6000
3000
1000
1800
1800
1800
1800
1800
1800
1800
1800
ENDCHAR
STARTCHAR bracelefttp
ENCODING -1 108
SWIDTH 0 0
DWIDTH 9 0
BBX 5 22 4 -5
BITMAP
3800
6000
c000
c000
c000
c000
c000
c000
c000
c000
c000
c000
c000
c000
c000
c000
c000
c000
c000
c000
c000
c000
ENDCHAR
STARTCHAR bracketleftbt
ENCODING -1 107
SWIDTH 0 0
DWIDTH 7 0
BBX 5 22 1 -5
BITMAP
c000
c000
c000
c000
c000
c000
c000
c000
c000
c000
c000
c000
c000
c000
c000
c000
c000
c000
c000
c000
c000
f800
ENDCHAR
STARTCHAR bracketleftex
ENCODING -1 106
SWIDTH 0 0
DWIDTH 7 0
BBX 2 22 1 -5
BITMAP
c000
c000
c000
c000
c000
c000
c000
c000
c000
c000
c000
c000
c000
c000
c000
c000
c000
c000
c000
c000
c000
c000
ENDCHAR
STARTCHAR bracketlefttp
ENCODING -1 105
SWIDTH 0 0
DWIDTH 7 0
BBX 5 22 1 -5
BITMAP
f800
c000
c000
c000
c000
c000
c000
c000
c000
c000
c000
c000
c000
c000
c000
c000
c000
c000
c000
c000
c000
c000
ENDCHAR
STARTCHAR parenleftbt
ENCODING -1 104
SWIDTH 0 0
DWIDTH 7 0
BBX 6 25 1 -8
BITMAP
c000
c000
c000
c000
c000
c000
c000
c000
c000
c000
c000
c000
c000
c000
c000
e000
6000
6000
6000
3000
3000
1800
1800
0c00
0400
ENDCHAR
STARTCHAR parenleftex
ENCODING -1 103
SWIDTH 0 0
DWIDTH 7 0
BBX 2 25 1 -8
BITMAP
c000
c000
c000
c000
c000
c000
c000
c000
c000
c000
c000
c000
c000
c000
c000
c000
c000
c000
c000
c000
c000
c000
c000
c000
c000
ENDCHAR
STARTCHAR parenlefttp
ENCODING -1 102
SWIDTH 0 0
DWIDTH 7 0
BBX 6 25 1 -8
BITMAP
0400
0c00
1800
1800
3000
3000
6000
6000
6000
6000
c000
c000
c000
c000
c000
c000
c000
c000
c000
c000
c000
c000
c000
c000
c000
ENDCHAR
STARTCHAR summation
ENCODING -1 101
SWIDTH 0 0
DWIDTH 13 0
BBX 12 16 0 -3
BITMAP
ffe0
e060
7020
3800
1c00
0e00
0700
0300
0600
0c00
1800
3000
6010
c030
fff0
fff0
ENDCHAR
STARTCHAR trademarksans
ENCODING -1 100
SWIDTH 0 0
DWIDTH 15 0
BBX 13 8 1 4
BITMAP
fb18
2318
2318
22a8
22a8
22a8
2248
2248
ENDCHAR
STARTCHAR copyrightsans
ENCODING -1 99
SWIDTH 0 0
DWIDTH 15 0
BBX 13 13 1 -1
BITMAP
1fc0
38e0
6030
c718
cc98
cc18
cc18
cc18
cc98
c718
6030
38e0
1fc0
ENDCHAR
STARTCHAR registersans
ENCODING -1 98
SWIDTH 0 0
DWIDTH 15 0
BBX 13 13 1 -1
BITMAP
1fc0
38e0
6030
cf18
cd98
cd98
cf18
cd98
cd98
cd98
6030
38e0
1fc0
ENDCHAR
STARTCHAR angleleft
ENCODING -1 97
SWIDTH 0 0
DWIDTH 6 0
BBX 5 17 0 -4
BITMAP
1800
1800
3000
3000
6000
6000
c000
c000
8000
c000
c000
6000
6000
3000
3000
1800
1800
ENDCHAR
STARTCHAR lozenge
ENCODING -1 96
SWIDTH 0 0
DWIDTH 9 0
BBX 9 14 0 -1
BITMAP
1c00
1c00
3600
3600
6300
6300
c180
c180
6300
6300
3600
3600
1c00
1c00
ENDCHAR
STARTCHAR arrowdbldown
ENCODING -1 95
SWIDTH 0 0
DWIDTH 11 0
BBX 9 17 1 -1
BITMAP
3600
3600
3600
3600
3600
3600
3600
3600
3600
3600
3600
3600
f780
7700
3600
1c00
0800
ENDCHAR
STARTCHAR arrowdblright
ENCODING -1 94
SWIDTH 0 0
DWIDTH 18 0
BBX 16 9 1 -1
BITMAP
0010
0018
fffc
fffe
0007
fffe
fffc
0018
0010
ENDCHAR
STARTCHAR arrowdblup
ENCODING -1 93
SWIDTH 0 0
DWIDTH 11 0
BBX 9 17 1 -1
BITMAP
0800
1c00
3600
7700
f780
3600
3600
3600
3600
3600
3600
3600
3600
3600
3600
3600
3600
ENDCHAR
STARTCHAR arrowdblleft
ENCODING -1 92
SWIDTH 0 0
DWIDTH 18 0
BBX 16 9 1 -1
BITMAP
0800
1800
3fff
7fff
e000
7fff
3fff
1800
0800
ENDCHAR
STARTCHAR arrowdblboth
ENCODING -1 91
SWIDTH 0 0
DWIDTH 18 0
BBX 18 9 0 -1
BITMAP
08040000
18060000
3fff0000
7fff8000
e001c000
7fff8000
3fff0000
18060000
08040000
ENDCHAR
STARTCHAR logicalor
ENCODING -1 90
SWIDTH 0 0
DWIDTH 11 0
BBX 10 9 0 -1
BITMAP
c0c0
c0c0
6180
6180
3300
3300
1e00
0c00
0c00
ENDCHAR
STARTCHAR logicaland
ENCODING -1 89
SWIDTH 0 0
DWIDTH 11 0
BBX 10 9 0 -1
BITMAP
0c00
0c00
1e00
3300
3300
6180
6180
c0c0
c0c0
ENDCHAR
STARTCHAR logicalnot
ENCODING -1 88
SWIDTH 0 0
DWIDTH 13 0
BBX 11 6 1 -1
BITMAP
ffe0
ffe0
0060
0060
0060
0060
ENDCHAR
STARTCHAR dotmath
ENCODING -1 87
SWIDTH 0 0
DWIDTH 4 0
BBX 2 2 1 3
BITMAP
c000
c000
ENDCHAR
STARTCHAR radical
ENCODING -1 86
SWIDTH 0 0
DWIDTH 10 0
BBX 10 17 0 -1
BITMAP
0040
0040
0040
0080
0080
0080
0080
3080
7100
d900
1900
1900
0d00
0d00
0600
0600
0600
ENDCHAR
STARTCHAR product
ENCODING -1 85
SWIDTH 0 0
DWIDTH 15 0
BBX 14 16 0 -3
BITMAP
fffc
7878
3030
3030
3030
3030
3030
3030
3030
3030
3030
3030
3030
3030
7878
fcfc
ENDCHAR
STARTCHAR trademarkserif
ENCODING -1 84
SWIDTH 0 0
DWIDTH 16 0
BBX 14 8 1 4
BITMAP
fb1c
ab18
2318
22a8
22a8
22a8
2248
775c
ENDCHAR
STARTCHAR copyrightserif
ENCODING -1 83
SWIDTH 0 0
DWIDTH 15 0
BBX 13 13 1 -1
BITMAP
1fc0
38e0
6030
c798
cd98
cc98
cc18
cc18
cc98
c718
6030
38e0
1fc0
ENDCHAR
STARTCHAR registerserif
ENCODING -1 82
SWIDTH 0 0
DWIDTH 15 0
BBX 13 13 1 -1
BITMAP
1fc0
38e0
6030
df18
cd98
cd98
cd98
cf18
cd98
dcd8
6030
38e0
1fc0
ENDCHAR
STARTCHAR gradient
ENCODING -1 81
SWIDTH 0 0
DWIDTH 13 0
BBX 11 13 1 -1
BITMAP
ffe0
e020
6060
6040
70c0
3080
3080
3980
1900
1b00
0e00
0e00
0400
ENDCHAR
STARTCHAR angle
ENCODING -1 80
SWIDTH 0 0
DWIDTH 14 0
BBX 13 13 0 -1
BITMAP
0018
0030
0060
00c0
0180
0300
0600
0c00
1800
3000
6000
c000
fff8
ENDCHAR
STARTCHAR notelement
ENCODING -1 79
SWIDTH 0 0
DWIDTH 12 0
BBX 10 11 1 -2
BITMAP
0080
1fc0
7fc0
e200
c400
ff80
c800
f000
7fc0
3fc0
4000
ENDCHAR
STARTCHAR element
ENCODING -1 78
SWIDTH 0 0
DWIDTH 12 0
BBX 9 9 1 -1
BITMAP
1f80
7f80
e000
c000
ff80
c000
e000
7f80
1f80
ENDCHAR
STARTCHAR reflexsubset
ENCODING -1 77
SWIDTH 0 0
DWIDTH 13 0
BBX 12 12 0 -4
BITMAP
1ff0
7ff0
6000
c000
c000
c000
6000
7ff0
1ff0
0000
fff0
fff0
ENDCHAR
STARTCHAR propersubset
ENCODING -1 76
SWIDTH 0 0
DWIDTH 13 0
BBX 12 9 0 -1
BITMAP
1ff0
7ff0
6000
c000
c000
c000
6000
7ff0
1ff0
ENDCHAR
STARTCHAR notsubset
ENCODING -1 75
SWIDTH 0 0
DWIDTH 13 0
BBX 12 13 0 -3
BITMAP
0060
00c0
1ff0
7ff0
6180
c300
c300
c600
6600
7ff0
1ff0
1800
3000
ENDCHAR
STARTCHAR reflexsuperset
ENCODING -1 74
SWIDTH 0 0
DWIDTH 13 0
BBX 12 12 0 -4
BITMAP
ff80
ffe0
0060
0030
0030
0030
0060
ffe0
ff80
0000
fff0
fff0
ENDCHAR
STARTCHAR propersuperset
ENCODING -1 73
SWIDTH 0 0
DWIDTH 13 0
BBX 12 9 1 -1
BITMAP
ff80
ffe0
0060
0030
0030
0030
0060
ffe0
ff80
ENDCHAR
STARTCHAR union
ENCODING -1 72
SWIDTH 0 0
DWIDTH 14 0
BBX 12 9 1 -1
BITMAP
c030
c030
c030
c030
c030
e070
6060
39c0
1f80
ENDCHAR
STARTCHAR intersection
ENCODING -1 71
SWIDTH 0 0
DWIDTH 14 0
BBX 12 9 1 -1
BITMAP
1f80
39c0
6060
e070
c030
c030
c030
c030
c030
ENDCHAR
STARTCHAR emptyset
ENCODING -1 70
SWIDTH 0 0
DWIDTH 14 0
BBX 12 13 1 -1
BITMAP
1fb0
39f0
6060
c0f0
c1b0
8310
8610
8c10
d830
f030
6060
f9c0
df80
ENDCHAR
STARTCHAR circleplus
ENCODING -1 69
SWIDTH 0 0
DWIDTH 14 0
BBX 12 13 1 -1
BITMAP
1f80
39c0
6660
c630
c630
bfd0
bfd0
8610
c630
c630
6060
39c0
1f80
ENDCHAR
STARTCHAR circlemultiply
ENCODING -1 68
SWIDTH 0 0
DWIDTH 14 0
BBX 12 13 1 -1
BITMAP
1f80
39c0
6060
d9b0
ddb0
8f10
8610
8f10
dbb0
d9b0
6060
39c0
1f80
ENDCHAR
STARTCHAR weierstrass
ENCODING -1 67
SWIDTH 0 0
DWIDTH 14 0
BBX 12 15 1 -5
BITMAP
0c00
1800
31e0
6730
cc30
d830
d630
f660
64e0
77c0
b380
9800
9800
d800
7000
ENDCHAR
STARTCHAR Rfraktur
ENCODING -1 66
SWIDTH 0 0
DWIDTH 15 0
BBX 13 14 1 -1
BITMAP
79c0
fee0
8e70
8630
c660
7680
3640
2660
0660
0660
0660
0660
6c78
b830
ENDCHAR
STARTCHAR Ifraktur
ENCODING -1 65
SWIDTH 0 0
DWIDTH 13 0
BBX 10 15 1 -2
BITMAP
1fc0
3fc0
6080
4100
4200
2200
1300
0380
01c0
00c0
00c0
70c0
f880
1f00
0e00
ENDCHAR
STARTCHAR aleph
ENCODING -1 64
SWIDTH 0 0
DWIDTH 13 0
BBX 11 13 1 -1
BITMAP
c200
e3c0
71e0
38e0
3980
7d00
cf00
c700
e300
7380
31c0
70c0
f040
ENDCHAR
STARTCHAR carriagereturn
ENCODING -1 63
SWIDTH 0 0
DWIDTH 12 0
BBX 9 12 1 -1
BITMAP
0180
0180
0180
0180
0180
0180
2180
6180
ff80
ff80
6000
2000
ENDCHAR
STARTCHAR arrowhorizex
ENCODING -1 62
SWIDTH 0 0
DWIDTH 19 0
BBX 19 2 0 3
BITMAP
ffffe000
ffffe000
ENDCHAR
STARTCHAR arrowvertex
ENCODING -1 61
SWIDTH 0 0
DWIDTH 10 0
BBX 2 23 4 -5
BITMAP
0000
c000
c000
c000
c000
c000
c000
c000
c000
c000
c000
c000
c000
c000
c000
c000
c000
c000
c000
c000
c000
c000
c000
ENDCHAR
STARTCHAR ellipsis
ENCODING -1 60
SWIDTH 0 0
DWIDTH 18 0
BBX 14 2 2 -1
BITMAP
c30c
c30c
ENDCHAR
STARTCHAR approxequal
ENCODING -1 59
SWIDTH 0 0
DWIDTH 10 0
BBX 8 7 1 1
BITMAP
7300
ff00
ce00
0000
7300
ff00
ce00
ENDCHAR
STARTCHAR equivalence
ENCODING -1 58
SWIDTH 0 0
DWIDTH 10 0
BBX 8 8 1 0
BITMAP
ff00
ff00
0000
ff00
ff00
0000
ff00
ff00
ENDCHAR
STARTCHAR notequal
ENCODING -1 57
SWIDTH 0 0
DWIDTH 10 0
BBX 8 9 1 -1
BITMAP
0c00
0c00
ff00
ff00
1800
ff00
ff00
3000
3000
ENDCHAR
STARTCHAR divide
ENCODING -1 56
SWIDTH 0 0
DWIDTH 10 0
BBX 8 8 1 0
BITMAP
1800
1800
0000
ff00
ff00
0000
1800
1800
ENDCHAR
STARTCHAR bullet
ENCODING -1 55
SWIDTH 0 0
DWIDTH 9 0
BBX 5 6 2 1
BITMAP
7000
f800
f800
f800
f800
7000
ENDCHAR
STARTCHAR partialdiff
ENCODING -1 54
SWIDTH 0 0
DWIDTH 9 0
BBX 7 14 1 -1
BITMAP
7800
cc00
8600
0600
0600
0600
3e00
6600
c600
c600
c600
c400
ec00
7800
ENDCHAR
STARTCHAR proportional
ENCODING -1 53
SWIDTH 0 0
DWIDTH 12 0
BBX 11 5 0 2
BITMAP
79e0
cf00
8600
cf00
79e0
ENDCHAR
STARTCHAR multiply
ENCODING -1 52
SWIDTH 0 0
DWIDTH 10 0
BBX 10 9 0 -1
BITMAP
e1c0
7380
3300
1e00
0c00
1e00
3300
7380
e1c0
ENDCHAR
STARTCHAR greaterequal
ENCODING -1 51
SWIDTH 0 0
DWIDTH 10 0
BBX 9 12 0 -1
BITMAP
e000
7800
1e00
0780
0180
0780
1e00
7800
e000
0000
ff80
ff80
ENDCHAR
STARTCHAR second
ENCODING -1 50
SWIDTH 0 0
DWIDTH 8 0
BBX 8 5 0 8
BITMAP
3300
7700
6600
cc00
8800
ENDCHAR
STARTCHAR plusminus
ENCODING -1 49
SWIDTH 0 0
DWIDTH 10 0
BBX 8 11 1 -1
BITMAP
1800
1800
1800
ff00
ff00
1800
1800
1800
0000
ff00
ff00
ENDCHAR
STARTCHAR degree
ENCODING -1 48
SWIDTH 0 0
DWIDTH 7 0
BBX 5 6 1 6
BITMAP
7000
f800
d800
d800
f800
7000
ENDCHAR
STARTCHAR arrowdown
ENCODING -1 47
SWIDTH 0 0
DWIDTH 10 0
BBX 8 22 1 -5
BITMAP
1800
1800
1800
1800
1800
1800
1800
1800
1800
1800
1800
1800
1800
1800
1800
1800
1800
9900
db00
7e00
3c00
1800
ENDCHAR
STARTCHAR arrowright
ENCODING -1 46
SWIDTH 0 0
DWIDTH 18 0
BBX 18 8 0 0
BITMAP
00060000
00030000
00018000
ffffc000
ffffc000
00018000
00030000
00060000
ENDCHAR
STARTCHAR arrowup
ENCODING -1 45
SWIDTH 0 0
DWIDTH 10 0
BBX 8 22 1 -5
BITMAP
1800
3c00
7e00
db00
9900
1800
1800
1800
1800
1800
1800
1800
1800
1800
1800
1800
1800
1800
1800
1800
1800
1800
ENDCHAR
STARTCHAR arrowleft
ENCODING -1 44
SWIDTH 0 0
DWIDTH 18 0
BBX 18 8 0 0
BITMAP
18000000
30000000
60000000
ffffc000
ffffc000
60000000
30000000
18000000
ENDCHAR
STARTCHAR arrowboth
ENCODING -1 43
SWIDTH 0 0
DWIDTH 19 0
BBX 17 8 1 0
BITMAP
180c0000
30060000
60030000
ffff8000
ffff8000
60030000
30060000
180c0000
ENDCHAR
STARTCHAR spade
ENCODING -1 42
SWIDTH 0 0
DWIDTH 14 0
BBX 10 9 2 -1
BITMAP
0c00
1e00
3f00
7f80
ffc0
ffc0
6d80
0c00
0c00
ENDCHAR
STARTCHAR heart
ENCODING -1 41
SWIDTH 0 0
DWIDTH 13 0
BBX 9 9 2 -1
BITMAP
6300
f780
ff80
ff80
7f00
7f00
3e00
1c00
0800
ENDCHAR
STARTCHAR diamond
ENCODING -1 40
SWIDTH 0 0
DWIDTH 13 0
BBX 9 9 2 -1
BITMAP
0800
1c00
3e00
7f00
ff80
7f00
3e00
1c00
0800
ENDCHAR
STARTCHAR club
ENCODING -1 39
SWIDTH 0 0
DWIDTH 14 0
BBX 10 9 2 -1
BITMAP
0c00
1e00
1e00
1e00
6d80
ffc0
ffc0
6d80
0c00
ENDCHAR
STARTCHAR florin
ENCODING -1 38
SWIDTH 0 0
DWIDTH 9 0
BBX 9 17 0 -5
BITMAP
0380
0580
0c00
0c00
0c00
7f00
1800
1800
1800
1800
1800
1800
1800
1800
1800
d000
e000
ENDCHAR
STARTCHAR infinity
ENCODING -1 37
SWIDTH 0 0
DWIDTH 13 0
BBX 12 5 0 2
BITMAP
79e0
cf30
8610
cf30
79e0
ENDCHAR
STARTCHAR fraction
ENCODING -1 36
SWIDTH 0 0
DWIDTH 5 0
BBX 8 13 -1 -1
BITMAP
0300
0600
0600
0c00
0c00
1800
1800
3000
3000
6000
6000
c000
c000
ENDCHAR
STARTCHAR lessequal
ENCODING -1 35
SWIDTH 0 0
DWIDTH 10 0
BBX 9 12 0 -1
BITMAP
0380
0f00
3c00
f000
c000
f000
3c00
0f00
0380
0000
ff80
ff80
ENDCHAR
STARTCHAR minute
ENCODING -1 34
SWIDTH 0 0
DWIDTH 5 0
BBX 4 5 1 8
BITMAP
3000
7000
6000
c000
8000
ENDCHAR
STARTCHAR Upsilon1
ENCODING -1 33
SWIDTH 0 0
DWIDTH 12 0
BBX 11 13 0 -1
BITMAP
e1c0
7320
3a60
1c60
0c00
0c00
0c00
0c00
0c00
0c00
0c00
0c00
1e00
ENDCHAR
ENDFONT
